# xmcd
#
# Track frame offsets: 
#        150
#        20432
#        32895
#        55637
#        72935
#        93167
#        114687
#        128870
#        145687
#        168970
#        187590
#        200745
#
# Disc length: 2952 seconds
#
# Revision: 4
# Processed by: cddbd v1.5.1PL2 Copyright (c) Steve Scherf et al.
# Submitted via: ExactAudioCopy v0.95b3
#
DISCID=9d0b860c
DTITLE=Various Artist - Chicago Blues Band
DYEAR=2000
DGENRE=Blues
TTITLE0=John Lee Hooker - Crawling King Snake
TTITLE1=John Lee Hooker - Dimples (I Love the Way You Walk)
TTITLE2=John Lee Hooker - It Serves Me Right to Suffer
TTITLE3=John Lee Hooker - Maudie, I Miss You So Bad Baby
TTITLE4=John Lee Hooker - Boom, Boom, I'm Gonna Shoot You Down
TTITLE5=John Lee Hooker - Chicago Boogie Style
TTITLE6=Sunnyland Slim - She's Got a Thing Goin' On
TTITLE7=Willie Dixon - 29 Ways
TTITLE8=Clifton James - Wee Wee Hours
TTITLE9=Johnny Shines - I Do Believe
TTITLE10=Johnny Shines - Fat Mama
TTITLE11=Johnny Shines - Re Boogie
EXTD=Chicago Blues Band:  John Lee Hooker, Sunnyland Slim, Johnny Shin
EXTD=es, Willie Dixon, Clifton James.
EXTT0=
EXTT1=
EXTT2=
EXTT3=
EXTT4=
EXTT5=
EXTT6=
EXTT7=
EXTT8=
EXTT9=
EXTT10=
EXTT11=
PLAYORDER=
